<?xml version="1.0" encoding="UTF-8" standalone="no" ?>
<!DOCTYPE svg PUBLIC "-//W3C//DTD SVG 1.1//EN" "http://www.w3.org/Graphics/SVG/1.1/DTD/svg11.dtd">
<svg xmlns="http://www.w3.org/2000/svg" xmlns:xlink="http://www.w3.org/1999/xlink" version="1.1" width="1280" height="420" viewBox="0 0 1280 420" xml:space="preserve">
<desc>Created with Fabric.js 4.2.0</desc>
<defs>
</defs>
<g transform="matrix(1 0 0 1 640 210)" id="8dc08b85-3ea5-4c7d-bf16-be844e5e6786"  >
<rect style="stroke: none; stroke-width: 1; stroke-dasharray: none; stroke-linecap: butt; stroke-dashoffset: 0; stroke-linejoin: miter; stroke-miterlimit: 4; fill: rgb(255,255,255); fill-rule: nonzero; opacity: 1;" vector-effect="non-scaling-stroke"  x="-640" y="-210" rx="0" ry="0" width="1280" height="420" />
</g>
<g transform="matrix(Infinity NaN NaN Infinity 0 0)" id="ea849c1c-74ce-4863-b148-bcc540195dec"  >
</g>
<g transform="matrix(13.64 0 0 13.64 636.94 210.71)"  >
<g style="" vector-effect="non-scaling-stroke"   >
		<g transform="matrix(1 0 0 1 -30.51 0)"  >
<path style="stroke: none; stroke-width: 1; stroke-dasharray: none; stroke-linecap: butt; stroke-dashoffset: 0; stroke-linejoin: miter; stroke-miterlimit: 4; fill: rgb(255,0,0); fill-rule: nonzero; opacity: 1;" vector-effect="non-scaling-stroke"  transform=" translate(-14.29, -10)" d="M 27.9727 3.12324 C 27.6435 1.89323 26.6768 0.926623 25.4468 0.597366 C 23.2197 2.24288e-7 14.285 0 14.285 0 C 14.285 0 5.35042 2.24288e-7 3.12323 0.597366 C 1.89323 0.926623 0.926623 1.89323 0.597366 3.12324 C 2.24288e-7 5.35042 0 10 0 10 C 0 10 2.24288e-7 14.6496 0.597366 16.8768 C 0.926623 18.1068 1.89323 19.0734 3.12323 19.4026 C 5.35042 20 14.285 20 14.285 20 C 14.285 20 23.2197 20 25.4468 19.4026 C 26.6768 19.0734 27.6435 18.1068 27.9727 16.8768 C 28.5701 14.6496 28.5701 10 28.5701 10 C 28.5701 10 28.5677 5.35042 27.9727 3.12324 Z" stroke-linecap="round" />
</g>
		<g transform="matrix(1 0 0 1 -29.66 0)"  >
<path style="stroke: none; stroke-width: 1; stroke-dasharray: none; stroke-linecap: butt; stroke-dashoffset: 0; stroke-linejoin: miter; stroke-miterlimit: 4; fill: rgb(255,255,255); fill-rule: nonzero; opacity: 1;" vector-effect="non-scaling-stroke"  transform=" translate(-15.14, -10)" d="M 11.4253 14.2854 L 18.8477 10.0004 L 11.4253 5.71533 L 11.4253 14.2854 Z" stroke-linecap="round" />
</g>
		<g transform="matrix(1 0 0 1 -8.78 -0.01)"  >
<path style="stroke: none; stroke-width: 1; stroke-dasharray: none; stroke-linecap: butt; stroke-dashoffset: 0; stroke-linejoin: miter; stroke-miterlimit: 4; fill: rgb(0,0,0); fill-rule: nonzero; opacity: 1;" vector-effect="non-scaling-stroke"  transform=" translate(-36.01, -9.99)" d="M 34.6024 13.0036 L 31.3945 1.41846 L 34.1932 1.41846 L 35.3174 6.6701 C 35.6043 7.96361 35.8136 9.06662 35.95 9.97913 L 36.0323 9.97913 C 36.1264 9.32532 36.3381 8.22937 36.665 6.68892 L 37.8291 1.41846 L 40.6278 1.41846 L 37.3799 13.0036 L 37.3799 18.561 L 34.6001 18.561 L 34.6001 13.0036 L 34.6024 13.0036 Z" stroke-linecap="round" />
</g>
		<g transform="matrix(1 0 0 1 -0.99 2.28)"  >
<path style="stroke: none; stroke-width: 1; stroke-dasharray: none; stroke-linecap: butt; stroke-dashoffset: 0; stroke-linejoin: miter; stroke-miterlimit: 4; fill: rgb(0,0,0); fill-rule: nonzero; opacity: 1;" vector-effect="non-scaling-stroke"  transform=" translate(-43.81, -12.28)" d="M 41.4697 18.1937 C 40.9053 17.8127 40.5031 17.22 40.2632 16.4157 C 40.0257 15.6114 39.9058 14.5437 39.9058 13.2078 L 39.9058 11.3898 C 39.9058 10.0422 40.0422 8.95805 40.315 8.14196 C 40.5878 7.32588 41.0135 6.72851 41.592 6.35457 C 42.1706 5.98063 42.9302 5.79248 43.871 5.79248 C 44.7976 5.79248 45.5384 5.98298 46.0981 6.36398 C 46.6555 6.74497 47.0647 7.34234 47.3234 8.15137 C 47.5821 8.96275 47.7115 10.0422 47.7115 11.3898 L 47.7115 13.2078 C 47.7115 14.5437 47.5845 15.6161 47.3329 16.4251 C 47.0812 17.2365 46.672 17.8292 46.1075 18.2031 C 45.5431 18.5771 44.7764 18.7652 43.8098 18.7652 C 42.8126 18.7675 42.0342 18.5747 41.4697 18.1937 Z M 44.6353 16.2323 C 44.7905 15.8231 44.8705 15.1575 44.8705 14.2309 L 44.8705 10.3292 C 44.8705 9.43077 44.7929 8.77225 44.6353 8.35833 C 44.4777 7.94206 44.2026 7.7351 43.8074 7.7351 C 43.4265 7.7351 43.156 7.94206 43.0008 8.35833 C 42.8432 8.77461 42.7656 9.43077 42.7656 10.3292 L 42.7656 14.2309 C 42.7656 15.1575 42.8408 15.8254 42.9914 16.2323 C 43.1419 16.6415 43.4123 16.8461 43.8074 16.8461 C 44.2026 16.8461 44.4777 16.6415 44.6353 16.2323 Z" stroke-linecap="round" />
</g>
		<g transform="matrix(1 0 0 1 8.2 2.4)"  >
<path style="stroke: none; stroke-width: 1; stroke-dasharray: none; stroke-linecap: butt; stroke-dashoffset: 0; stroke-linejoin: miter; stroke-miterlimit: 4; fill: rgb(0,0,0); fill-rule: nonzero; opacity: 1;" vector-effect="non-scaling-stroke"  transform=" translate(-52.99, -12.4)" d="M 56.8154 18.5634 L 54.6094 18.5634 L 54.3648 17.03 L 54.3037 17.03 C 53.7039 18.1871 52.8055 18.7656 51.6061 18.7656 C 50.7759 18.7656 50.1621 18.4928 49.767 17.9496 C 49.3719 17.4039 49.1743 16.5526 49.1743 15.3955 L 49.1743 6.03751 L 51.9942 6.03751 L 51.9942 15.2308 C 51.9942 15.7906 52.0553 16.188 52.1776 16.4256 C 52.2999 16.6631 52.5045 16.783 52.7914 16.783 C 53.036 16.783 53.2712 16.7078 53.497 16.5573 C 53.7228 16.4067 53.8874 16.2162 53.9979 15.9858 L 53.9979 6.03516 L 56.8154 6.03516 L 56.8154 18.5634 Z" stroke-linecap="round" />
</g>
		<g transform="matrix(1 0 0 1 15.5 -0.01)"  >
<path style="stroke: none; stroke-width: 1; stroke-dasharray: none; stroke-linecap: butt; stroke-dashoffset: 0; stroke-linejoin: miter; stroke-miterlimit: 4; fill: rgb(0,0,0); fill-rule: nonzero; opacity: 1;" vector-effect="non-scaling-stroke"  transform=" translate(-60.3, -9.99)" d="M 64.4755 3.68758 L 61.6768 3.68758 L 61.6768 18.5629 L 58.9181 18.5629 L 58.9181 3.68758 L 56.1194 3.68758 L 56.1194 1.42041 L 64.4755 1.42041 L 64.4755 3.68758 Z" stroke-linecap="round" />
</g>
		<g transform="matrix(1 0 0 1 22.66 2.4)"  >
<path style="stroke: none; stroke-width: 1; stroke-dasharray: none; stroke-linecap: butt; stroke-dashoffset: 0; stroke-linejoin: miter; stroke-miterlimit: 4; fill: rgb(0,0,0); fill-rule: nonzero; opacity: 1;" vector-effect="non-scaling-stroke"  transform=" translate(-67.46, -12.4)" d="M 71.2768 18.5634 L 69.0708 18.5634 L 68.8262 17.03 L 68.7651 17.03 C 68.1654 18.1871 67.267 18.7656 66.0675 18.7656 C 65.2373 18.7656 64.6235 18.4928 64.2284 17.9496 C 63.8333 17.4039 63.6357 16.5526 63.6357 15.3955 L 63.6357 6.03751 L 66.4556 6.03751 L 66.4556 15.2308 C 66.4556 15.7906 66.5167 16.188 66.639 16.4256 C 66.7613 16.6631 66.9659 16.783 67.2529 16.783 C 67.4974 16.783 67.7326 16.7078 67.9584 16.5573 C 68.1842 16.4067 68.3488 16.2162 68.4593 15.9858 L 68.4593 6.03516 L 71.2768 6.03516 L 71.2768 18.5634 Z" stroke-linecap="round" />
</g>
		<g transform="matrix(1 0 0 1 32.13 -0.24)"  >
<path style="stroke: none; stroke-width: 1; stroke-dasharray: none; stroke-linecap: butt; stroke-dashoffset: 0; stroke-linejoin: miter; stroke-miterlimit: 4; fill: rgb(0,0,0); fill-rule: nonzero; opacity: 1;" vector-effect="non-scaling-stroke"  transform=" translate(-76.92, -9.76)" d="M 80.609 8.0387 C 80.4373 7.24849 80.1621 6.67699 79.7812 6.32186 C 79.4002 5.96674 78.8757 5.79035 78.2078 5.79035 C 77.6904 5.79035 77.2059 5.93616 76.7567 6.23014 C 76.3075 6.52412 75.9594 6.90747 75.7148 7.38489 L 75.6937 7.38489 L 75.6937 0.785645 L 72.9773 0.785645 L 72.9773 18.5608 L 75.3056 18.5608 L 75.5925 17.3755 L 75.6537 17.3755 C 75.8724 17.7988 76.1993 18.1304 76.6344 18.3774 C 77.0695 18.622 77.554 18.7443 78.0855 18.7443 C 79.038 18.7443 79.7412 18.3045 80.1904 17.4272 C 80.6396 16.5476 80.8653 15.1765 80.8653 13.3092 L 80.8653 11.3266 C 80.8653 9.92722 80.7783 8.82892 80.609 8.0387 Z M 78.0243 13.1492 C 78.0243 14.0617 77.9867 14.7767 77.9114 15.2941 C 77.8362 15.8115 77.7115 16.1808 77.5328 16.3971 C 77.3564 16.6158 77.1165 16.724 76.8178 16.724 C 76.585 16.724 76.371 16.6699 76.1734 16.5594 C 75.9759 16.4512 75.816 16.2866 75.6937 16.0702 L 75.6937 8.96062 C 75.7877 8.6196 75.9524 8.34209 76.1852 8.12337 C 76.4157 7.90465 76.6697 7.79646 76.9401 7.79646 C 77.2271 7.79646 77.4481 7.90935 77.6034 8.13278 C 77.7609 8.35855 77.8691 8.73485 77.9303 9.26636 C 77.9914 9.79787 78.022 10.5528 78.022 11.5335 L 78.022 13.1492 L 78.0243 13.1492 Z" stroke-linecap="round" />
</g>
		<g transform="matrix(1 0 0 1 41.05 2.28)"  >
<path style="stroke: none; stroke-width: 1; stroke-dasharray: none; stroke-linecap: butt; stroke-dashoffset: 0; stroke-linejoin: miter; stroke-miterlimit: 4; fill: rgb(0,0,0); fill-rule: nonzero; opacity: 1;" vector-effect="non-scaling-stroke"  transform=" translate(-85.85, -12.28)" d="M 84.8657 13.8712 C 84.8657 14.6755 84.8892 15.2776 84.9363 15.6798 C 84.9833 16.0819 85.0821 16.3736 85.2326 16.5594 C 85.3831 16.7428 85.6136 16.8345 85.9264 16.8345 C 86.3474 16.8345 86.639 16.6699 86.7942 16.343 C 86.9518 16.0161 87.0365 15.4705 87.0506 14.7085 L 89.4824 14.8519 C 89.4965 14.9601 89.5035 15.1106 89.5035 15.3011 C 89.5035 16.4582 89.186 17.3237 88.5534 17.8952 C 87.9208 18.4667 87.0247 18.7536 85.8676 18.7536 C 84.4777 18.7536 83.504 18.3185 82.9466 17.446 C 82.3869 16.5735 82.1094 15.2259 82.1094 13.4008 L 82.1094 11.2136 C 82.1094 9.33452 82.3987 7.96105 82.9772 7.09558 C 83.5558 6.2301 84.5459 5.79736 85.9499 5.79736 C 86.9165 5.79736 87.6597 5.97375 88.1771 6.32888 C 88.6945 6.684 89.059 7.23433 89.2707 7.98457 C 89.4824 8.7348 89.5882 9.76961 89.5882 11.0913 L 89.5882 13.2362 L 84.8657 13.2362 L 84.8657 13.8712 Z M 85.2232 7.96811 C 85.0797 8.14449 84.9857 8.43377 84.9363 8.83593 C 84.8892 9.2381 84.8657 9.84722 84.8657 10.6657 L 84.8657 11.5641 L 86.9283 11.5641 L 86.9283 10.6657 C 86.9283 9.86133 86.9001 9.25221 86.846 8.83593 C 86.7919 8.41966 86.6931 8.12803 86.5496 7.95635 C 86.4062 7.78702 86.1851 7.7 85.8864 7.7 C 85.5854 7.70235 85.3643 7.79172 85.2232 7.96811 Z" stroke-linecap="round" />
</g>
</g>
</g>
</svg>