<?xml version="1.0" encoding="UTF-8" standalone="no" ?>
<!DOCTYPE svg PUBLIC "-//W3C//DTD SVG 1.1//EN" "http://www.w3.org/Graphics/SVG/1.1/DTD/svg11.dtd">
<svg xmlns="http://www.w3.org/2000/svg" xmlns:xlink="http://www.w3.org/1999/xlink" version="1.1" width="1280" height="720" viewBox="0 0 1280 720" xml:space="preserve">
<desc>Created with Fabric.js 4.2.0</desc>
<defs>
</defs>
<rect x="0" y="0" width="100%" height="100%" fill="transparent"></rect>
<g transform="matrix(1 0 0 1 640 360)" id="23d97cfe-8955-4a4e-83a9-aa0f23ad2bba"  >
<rect style="stroke: none; stroke-width: 1; stroke-dasharray: none; stroke-linecap: butt; stroke-dashoffset: 0; stroke-linejoin: miter; stroke-miterlimit: 4; fill: rgb(255,255,255); fill-opacity: 0; fill-rule: nonzero; opacity: 1;" vector-effect="non-scaling-stroke"  x="-640" y="-360" rx="0" ry="0" width="1280" height="720" />
</g>
<g transform="matrix(Infinity NaN NaN Infinity 0 0)" id="30458fd6-e5df-440e-8cc2-34cedd13443c"  >
</g>
<g transform="matrix(5.39 0 0 5.39 641.7 359.06)"  >
<g style="" vector-effect="non-scaling-stroke"   >
		<g transform="matrix(1 0 0 1 0.11 2.24)"  >
<path style="stroke: none; stroke-width: 1; stroke-dasharray: none; stroke-linecap: butt; stroke-dashoffset: 0; stroke-linejoin: miter; stroke-miterlimit: 4; fill: rgb(255,193,0); fill-rule: nonzero; opacity: 1;" vector-effect="non-scaling-stroke"  transform=" translate(-115, -65.02)" d="M 3.43 126.34 L 227 126.34 C 228.92210700766896 117.98513065854301 227.0715375158806 109.20772595440863 221.94 102.34000000000002 C 217.52 96.23 211.94 89.83 212.23 73.61 C 212.51999999999998 57.39 211.82999999999998 14.380000000000003 191.32999999999998 6.310000000000002 C 162.45999999999998 -5.059999999999997 138.14999999999998 24.360000000000003 119.75999999999999 25.310000000000002 C 101.37 26.26 87.44999999999999 15.970000000000002 73.88999999999999 20.810000000000002 C 60.329999999999984 25.650000000000002 62.259999999999984 37.49 55.719999999999985 40.64 C 49.179999999999986 43.79 35.139999999999986 41.37 30.539999999999985 54.44 C 25.939999999999984 67.50999999999999 34.06 77.8 25 83.73 C 16.18 89.48 -2.620000000000001 93.05000000000001 3.4299999999999997 126.34 z" stroke-linecap="round" />
</g>
		<g transform="matrix(1 0 0 1 -26.47 31.26)"  >
<path style="stroke: none; stroke-width: 1; stroke-dasharray: none; stroke-linecap: butt; stroke-dashoffset: 0; stroke-linejoin: miter; stroke-miterlimit: 4; fill: rgb(255,214,29); fill-rule: nonzero; opacity: 1;" vector-effect="non-scaling-stroke"  transform=" translate(-88.42, -94.04)" d="M 103 87 C 103.11842017750209 83.77251063459357 105.77033961139279 81.2178282466122 109 81.22 C 111.12415463538791 81.13166592445901 113.12587285537364 82.21455378809216 114.21427250057411 84.0408128157958 C 115.3026721457746 85.86707184349946 115.3026721457746 88.14292815650053 114.21427250057411 89.96918718420417 C 113.12587285537364 91.79544621190783 111.1241546353879 92.87833407554098 109 92.78999999999999 C 105.76659887584897 92.79198104419389 103.11316845371164 90.23142068683137 103 86.99999999999999 z M 10.840000000000003 118.41 C 10.958420177502095 115.18251063459357 13.610339611392796 112.6278282466122 16.840000000000003 112.63 C 19.94147110549632 112.75897628937031 22.38942776552553 115.31084827989218 22.38942776552553 118.41499999999999 C 22.389427765525532 121.5191517201078 19.941471105496323 124.07102371062967 16.840000000000007 124.19999999999999 C 13.606598875848968 124.20198104419389 10.95316845371164 121.64142068683137 10.840000000000003 118.40999999999998 z M 25.140000000000004 76.47 C 25.140000000000004 71.47 29.480000000000004 67.67 34.45 67.47 C 39.42 67.27 43.45 71.8 43.45 76.47 C 43.45 81.44056274847713 39.420562748477145 85.47 34.45 85.47 C 29.429005617435674 85.46757308421788 25.312394090521202 81.48803455121785 25.14 76.47 z M 154.27 63.879999999999995 L 166 63.879999999999995 L 166 75.41 L 154.27 75.41 C 153.58 75.41 153.02 74.72 153.02 73.6 L 153.02 65.33999999999999 C 152.9987392004559 64.60412889392036 153.53963832646352 63.97235871474348 154.27 63.87999999999999 z M 103 111.22 C 103 106.49 107.12 102.85 111.85 102.67 C 116.57999999999998 102.49000000000001 120.41 106.78 120.41 111.23 C 120.41 113.5002531530265 119.50814544647203 115.67752264744168 117.90283404695684 117.28283404695685 C 116.29752264744167 118.88814544647202 114.1202531530265 119.79 111.85 119.79 C 107.0716869338805 119.78716713427161 103.1563999540137 115.99575364077346 103 111.22 z" stroke-linecap="round" />
</g>
		<g transform="matrix(1 0 0 1 -3.16 48.44)"  >
<path style="stroke: none; stroke-width: 1; stroke-dasharray: none; stroke-linecap: butt; stroke-dashoffset: 0; stroke-linejoin: miter; stroke-miterlimit: 4; fill: rgb(255,193,0); fill-rule: nonzero; opacity: 1;" vector-effect="non-scaling-stroke"  transform=" translate(-111.73, -111.22)" d="M 111.73 113.07 C 110.71972215269794 113.02747131095893 109.91974917373734 112.2011255964282 109.91000000000001 111.19 C 109.91000000000001 110.18484175530796 110.72484175530796 109.37 111.73000000000002 109.37 C 112.73515824469206 109.37 113.55000000000001 110.18484175530796 113.55000000000001 111.19 C 113.55051720395245 112.2053081519666 112.74479107974754 113.03759667587059 111.73000000000002 113.07 z" stroke-linecap="round" />
</g>
		<g transform="matrix(1 0 0 1 69.65 -35.48)"  >
<path style="stroke: none; stroke-width: 1; stroke-dasharray: none; stroke-linecap: butt; stroke-dashoffset: 0; stroke-linejoin: miter; stroke-miterlimit: 4; fill: rgb(255,214,29); fill-rule: nonzero; opacity: 1;" vector-effect="non-scaling-stroke"  transform=" translate(-184.54, -27.3)" d="M 176.68 27.32 C 176.68 23.060000000000002 180.4 19.78 184.68 19.61 C 188.96 19.439999999999998 192.39000000000001 23.32 192.39000000000001 27.32 C 192.3820589664377 29.36482394232679 191.56213204577014 31.322740918870196 190.1105971079571 32.763023647862994 C 188.65906217014404 34.2033063768558 186.694823821863 35.00797199275749 184.65 35 C 180.36535487772633 34.987360867856154 176.8513679087272 31.60123540713933 176.68 27.32 z" stroke-linecap="round" />
</g>
		<g transform="matrix(1 0 0 1 69.63 -35.47)"  >
<path style="stroke: none; stroke-width: 1; stroke-dasharray: none; stroke-linecap: butt; stroke-dashoffset: 0; stroke-linejoin: miter; stroke-miterlimit: 4; fill: rgb(255,193,0); fill-rule: nonzero; opacity: 1;" vector-effect="non-scaling-stroke"  transform=" translate(-184.52, -27.31)" d="M 184.52 31.19 C 182.40839399898437 31.089789351425573 180.73933322283503 29.36377899498767 180.71 27.25 C 180.71 25.145795103144675 182.4157951031447 23.439999999999998 184.52 23.439999999999998 C 186.62420489685533 23.439999999999998 188.33 25.145795103144675 188.33 27.25 C 188.3311576801652 29.376228412974637 186.64507104797391 31.119845560175104 184.52 31.19 z" stroke-linecap="round" />
</g>
		<g transform="matrix(1 0 0 1 -84.98 -5.86)"  >
<path style="stroke: none; stroke-width: 1; stroke-dasharray: none; stroke-linecap: butt; stroke-dashoffset: 0; stroke-linejoin: miter; stroke-miterlimit: 4; fill: rgb(255,214,29); fill-rule: nonzero; opacity: 1;" vector-effect="non-scaling-stroke"  transform=" translate(-29.91, -56.92)" d="M 24.59 56.92 C 24.712223005698327 54.01226462413147 27.08984506475266 51.70935527303263 29.999999999999996 51.68 C 32.89397203885574 51.68000007107499 35.23999987130733 54.02602796114425 35.23999987130733 56.919999999999995 C 35.23999987130733 59.81397203885574 32.89397203885574 62.159999928925004 30 62.16 C 27.081510132527193 62.15103715542329 24.692106990507938 59.83671692174845 24.59 56.919999999999995 z" stroke-linecap="round" />
</g>
		<g transform="matrix(1 0 0 1 -84.97 -5.87)"  >
<path style="stroke: none; stroke-width: 1; stroke-dasharray: none; stroke-linecap: butt; stroke-dashoffset: 0; stroke-linejoin: miter; stroke-miterlimit: 4; fill: rgb(255,193,0); fill-rule: nonzero; opacity: 1;" vector-effect="non-scaling-stroke"  transform=" translate(-29.92, -56.91)" d="M 29.92 59.55 C 28.47966862280001 59.49130231322737 27.33948242285349 58.31149574339854 27.330000000000002 56.87 C 27.330000000000002 55.43958249793824 28.489582497938247 54.279999999999994 29.92 54.279999999999994 C 31.35041750206176 54.279999999999994 32.510000000000005 55.43958249793824 32.510000000000005 56.87 C 32.51081540813198 58.31567660493069 31.364861426756914 59.501451381025355 29.920000000000005 59.55 z" stroke-linecap="round" />
</g>
		<g transform="matrix(1 0 0 1 -71.11 -5.83)"  >
<path style="stroke: none; stroke-width: 1; stroke-dasharray: none; stroke-linecap: butt; stroke-dashoffset: 0; stroke-linejoin: miter; stroke-miterlimit: 4; fill: rgb(255,214,29); fill-rule: nonzero; opacity: 1;" vector-effect="non-scaling-stroke"  transform=" translate(-43.78, -56.95)" d="M 40 53.15 C 42.14498980521809 51.18346600543801 45.454169804463 51.24059660303453 47.53 53.28 C 49.53670062744322 55.33286323625486 49.51802194463342 58.618195624469514 47.48810878455147 60.64810878455146 C 45.45819562446952 62.678021944633414 42.17286323625487 62.696700627443214 40.120000000000005 60.69 C 38.056752574699956 58.61878150297979 38.00370819876454 55.285826548370906 40.00000000000001 53.15 z" stroke-linecap="round" />
</g>
		<g transform="matrix(1 0 0 1 -71.17 -5.84)"  >
<path style="stroke: none; stroke-width: 1; stroke-dasharray: none; stroke-linecap: butt; stroke-dashoffset: 0; stroke-linejoin: miter; stroke-miterlimit: 4; fill: rgb(255,193,0); fill-rule: nonzero; opacity: 1;" vector-effect="non-scaling-stroke"  transform=" translate(-43.72, -56.94)" d="M 41.87 58.78 C 40.89615195084269 57.72188471364059 40.92253462979971 56.08615861830526 41.93 55.06 C 42.95132223498079 54.11575744256476 44.5361052864707 54.146819160868446 45.51964306280113 55.13035693719887 C 46.50318083913156 56.1138947135293 46.53424255743524 57.698677765019205 45.59 58.72 C 44.56812216065633 59.737648577990456 42.924165139211595 59.764164013820206 41.870000000000005 58.78 z" stroke-linecap="round" />
</g>
		<g transform="matrix(1 0 0 1 -56.78 -5.86)"  >
<path style="stroke: none; stroke-width: 1; stroke-dasharray: none; stroke-linecap: butt; stroke-dashoffset: 0; stroke-linejoin: miter; stroke-miterlimit: 4; fill: rgb(255,214,29); fill-rule: nonzero; opacity: 1;" vector-effect="non-scaling-stroke"  transform=" translate(-58.11, -56.92)" d="M 52.78 56.92 C 52.90243277900658 54.00843910227909 55.28596541675156 51.70406437501273 58.2 51.68 C 61.093972038855746 51.68000007107499 63.439999871307336 54.02602796114425 63.439999871307336 56.919999999999995 C 63.439999871307336 59.81397203885574 61.093972038855746 62.159999928925004 58.2 62.16 C 55.27763091019561 62.15640758207598 52.882253877880665 59.840581816516874 52.78 56.919999999999995 z" stroke-linecap="round" />
</g>
		<g transform="matrix(1 0 0 1 -56.78 -5.87)"  >
<path style="stroke: none; stroke-width: 1; stroke-dasharray: none; stroke-linecap: butt; stroke-dashoffset: 0; stroke-linejoin: miter; stroke-miterlimit: 4; fill: rgb(255,193,0); fill-rule: nonzero; opacity: 1;" vector-effect="non-scaling-stroke"  transform=" translate(-58.11, -56.91)" d="M 58.11 59.55 C 56.6696686228 59.49130231322737 55.529482422853484 58.31149574339854 55.519999999999996 56.87 C 55.519999999999996 55.43958249793824 56.67958249793824 54.28 58.11 54.28 C 59.54041750206175 54.28 60.699999999999996 55.43958249793824 60.699999999999996 56.87 C 60.70081540813197 58.31567660493069 59.55486142675691 59.501451381025355 58.11 59.55 z" stroke-linecap="round" />
</g>
		<g transform="matrix(1 0 0 1 105.75 47.95)"  >
<path style="stroke: none; stroke-width: 1; stroke-dasharray: none; stroke-linecap: butt; stroke-dashoffset: 0; stroke-linejoin: miter; stroke-miterlimit: 4; fill: rgb(255,214,29); fill-rule: nonzero; opacity: 1;" vector-effect="non-scaling-stroke"  transform=" translate(-220.64, -110.73)" d="M 211 110.72 C 211 105.49 215.57 101.45 220.8 101.25 C 226.03000000000003 101.05 230.28 105.81 230.28 110.73 C 230.28 115.96565942839592 226.03565942839592 120.21000000000001 220.8 120.21000000000001 C 215.5106236852035 120.20221459797513 211.17774336146562 116.00639477427386 211 110.72000000000001 z" stroke-linecap="round" />
</g>
		<g transform="matrix(1 0 0 1 105.77 47.95)"  >
<path style="stroke: none; stroke-width: 1; stroke-dasharray: none; stroke-linecap: butt; stroke-dashoffset: 0; stroke-linejoin: miter; stroke-miterlimit: 4; fill: rgb(255,193,0); fill-rule: nonzero; opacity: 1;" vector-effect="non-scaling-stroke"  transform=" translate(-220.66, -110.73)" d="M 220.66 113.7 C 219.0439412569078 113.63156559334334 217.76026749567905 112.31722385829683 217.73 110.7 C 217.73 109.08180568299578 219.04180568299577 107.77 220.66 107.77 C 222.27819431700422 107.77 223.59 109.08180568299578 223.59 110.7 C 223.59044375349785 112.3298981011665 222.28945440807647 113.66196910330441 220.66 113.7 z" stroke-linecap="round" />
</g>
		<g transform="matrix(1 0 0 1 14.48 12.23)"  >
<path style="stroke: none; stroke-width: 1; stroke-dasharray: none; stroke-linecap: butt; stroke-dashoffset: 0; stroke-linejoin: miter; stroke-miterlimit: 4; fill: rgb(255,214,29); fill-rule: nonzero; opacity: 1;" vector-effect="non-scaling-stroke"  transform=" translate(-129.37, -75.01)" d="M 104.28 108.46 C 104.10436008414544 108.46212876019516 103.94048503274199 108.37193647456236 103.84831158832536 108.22241066473093 C 103.75613814390873 108.07288485489951 103.74918680494075 107.88595877392979 103.83 107.72999999999999 L 113.4 88.79999999999998 C 113.47204869821361 88.62698068240877 113.63480756789636 88.50878386033361 113.82162956243667 88.49380916400992 C 114.00845155697696 88.47883446768624 114.18795953487805 88.56959692842274 114.28664796864608 88.72893083007087 C 114.38533640241413 88.88826473171899 114.38663036489424 89.08940961500011 114.29 89.24999999999999 L 104.72 108.18999999999998 C 104.63472865795073 108.35461002386343 104.46537933454147 108.45852892686457 104.28 108.45999999999998 z M 200.65 121.42999999999999 L 197.3 116.35 C 196.95587243968012 115.82660305228845 196.91773459847767 115.15919083124538 197.20000000000002 114.6 L 200.65 107.75999999999999 L 197.20000000000002 101.75999999999999 C 196.9279931004628 101.2471691961668 196.9279931004628 100.63283080383319 197.20000000000002 100.11999999999999 L 200.70000000000002 93.11999999999999 L 197.32000000000002 87.54999999999998 C 197.00352891613574 87.00601257207859 197.00352891613574 86.33398742792137 197.32000000000002 85.78999999999998 L 200.74 79.65999999999998 L 205.74 79.65999999999998 L 201.83 86.65999999999998 L 205.24 92.26999999999998 C 205.5484616590477 92.78137197656646 205.57485199146834 93.41473995466201 205.31 93.94999999999999 L 201.83 100.94999999999999 L 205.27 106.94999999999999 C 205.54555675545993 107.46548567023653 205.54555675545993 108.08451432976345 205.27 108.6 L 201.78 115.50999999999999 L 205.69 121.44 z M 53 32.24 L 58.08 28.89 C 58.60339694771154 28.54587243968012 59.27080916875462 28.507734598477658 59.83 28.79 L 66.67 32.24 L 72.67 28.790000000000003 C 73.1828308038332 28.5179931004628 73.7971691961668 28.5179931004628 74.31 28.790000000000003 L 81.31 32.290000000000006 L 86.88 28.910000000000007 C 87.42398742792139 28.593528916135718 88.0960125720786 28.593528916135718 88.64 28.910000000000007 L 94.77 32.330000000000005 L 94.77 37.330000000000005 L 87.77 33.42 L 82.16 36.83 C 81.64862802343352 37.138461659047685 81.01526004533798 37.16485199146833 80.47999999999999 36.9 L 73.47999999999999 33.42 L 67.47999999999999 36.86 C 66.96451432976345 37.135556755459916 66.34548567023653 37.135556755459916 65.82999999999998 36.86 L 58.91999999999999 33.37 L 53 37.23 z" stroke-linecap="round" />
</g>
		<g transform="matrix(1 0 0 1 41.07 -5.5)"  >
<rect style="stroke: none; stroke-width: 1; stroke-dasharray: none; stroke-linecap: butt; stroke-dashoffset: 0; stroke-linejoin: miter; stroke-miterlimit: 4; fill: rgb(255,214,29); fill-rule: nonzero; opacity: 1;" vector-effect="non-scaling-stroke"  x="-2.94" y="-2.94" rx="1.4" ry="1.4" width="5.88" height="5.88" />
</g>
		<g transform="matrix(0 -1 1 0 41.08 -15.63)"  >
<rect style="stroke: none; stroke-width: 1; stroke-dasharray: none; stroke-linecap: butt; stroke-dashoffset: 0; stroke-linejoin: miter; stroke-miterlimit: 4; fill: rgb(255,214,29); fill-rule: nonzero; opacity: 1;" vector-effect="non-scaling-stroke"  x="-2.94" y="-2.94" rx="1.4" ry="1.4" width="5.88" height="5.88" />
</g>
		<g transform="matrix(0 -1 1 0 -13.86 -9.68)"  >
<rect style="stroke: none; stroke-width: 1; stroke-dasharray: none; stroke-linecap: butt; stroke-dashoffset: 0; stroke-linejoin: miter; stroke-miterlimit: 4; fill: rgb(255,214,29); fill-rule: nonzero; opacity: 1;" vector-effect="non-scaling-stroke"  x="-5.95" y="-5.95" rx="2.82" ry="2.82" width="11.9" height="11.9" />
</g>
		<g transform="matrix(1 0 0 1 68.13 24.48)"  >
<rect style="stroke: none; stroke-width: 1; stroke-dasharray: none; stroke-linecap: butt; stroke-dashoffset: 0; stroke-linejoin: miter; stroke-miterlimit: 4; fill: rgb(255,214,29); fill-rule: nonzero; opacity: 1;" vector-effect="non-scaling-stroke"  x="-4.27" y="-8.435" rx="2.85" ry="2.85" width="8.54" height="16.87" />
</g>
		<g transform="matrix(1 0 0 1 39.88 -41.59)"  >
<rect style="stroke: none; stroke-width: 1; stroke-dasharray: none; stroke-linecap: butt; stroke-dashoffset: 0; stroke-linejoin: miter; stroke-miterlimit: 4; fill: rgb(255,214,29); fill-rule: nonzero; opacity: 1;" vector-effect="non-scaling-stroke"  x="-16.26" y="-14.96" rx="2.39" ry="2.39" width="32.52" height="29.92" />
</g>
		<g transform="matrix(1 0 0 1 -57.05 13.81)"  >
<rect style="stroke: none; stroke-width: 1; stroke-dasharray: none; stroke-linecap: butt; stroke-dashoffset: 0; stroke-linejoin: miter; stroke-miterlimit: 4; fill: rgb(255,214,29); fill-rule: nonzero; opacity: 1;" vector-effect="non-scaling-stroke"  x="-8.775" y="-6.87" rx="1.22" ry="1.22" width="17.55" height="13.74" />
</g>
		<g transform="matrix(1 0 0 1 56.14 51.77)"  >
<rect style="stroke: none; stroke-width: 1; stroke-dasharray: none; stroke-linecap: butt; stroke-dashoffset: 0; stroke-linejoin: miter; stroke-miterlimit: 4; fill: rgb(255,214,29); fill-rule: nonzero; opacity: 1;" vector-effect="non-scaling-stroke"  x="-16.26" y="-6.87" rx="1.62" ry="1.62" width="32.52" height="13.74" />
</g>
		<g transform="matrix(1 0 0 1 56.14 51.78)"  >
<path style="stroke: none; stroke-width: 1; stroke-dasharray: none; stroke-linecap: butt; stroke-dashoffset: 0; stroke-linejoin: miter; stroke-miterlimit: 4; fill: rgb(255,193,0); fill-rule: nonzero; opacity: 1;" vector-effect="non-scaling-stroke"  transform=" translate(-171.03, -114.56)" d="M 157.43 110.27 L 184.63 110.27 L 184.63 118.84 L 157.43 118.84 z" stroke-linecap="round" />
</g>
		<g transform="matrix(1 0 0 1 56.62 52.22)"  >
<path style="stroke: none; stroke-width: 1; stroke-dasharray: none; stroke-linecap: butt; stroke-dashoffset: 0; stroke-linejoin: miter; stroke-miterlimit: 4; fill: rgb(255,214,29); fill-rule: nonzero; opacity: 1;" vector-effect="non-scaling-stroke"  transform=" translate(-171.51, -115)" d="M 157.43 118.84 L 164.48000000000002 114.06 L 167.35000000000002 116.53 L 175.43000000000004 112.14 L 177.41000000000003 114.56 L 184.63000000000002 110.27 L 185.59000000000003 119.74 L 157.43000000000004 118.83999999999999 z" stroke-linecap="round" />
</g>
		<g transform="matrix(1 0 0 1 39.89 -41.59)"  >
<path style="stroke: none; stroke-width: 1; stroke-dasharray: none; stroke-linecap: butt; stroke-dashoffset: 0; stroke-linejoin: miter; stroke-miterlimit: 4; fill: rgb(255,193,0); fill-rule: nonzero; opacity: 1;" vector-effect="non-scaling-stroke"  transform=" translate(-154.78, -21.19)" d="M 144.34 12.19 L 165.21 12.19 L 165.21 30.18 L 144.34 30.18 z" stroke-linecap="round" />
</g>
		<g transform="matrix(1 0 0 1 22.42 0)"  >
<path style="stroke: none; stroke-width: 1; stroke-dasharray: none; stroke-linecap: butt; stroke-dashoffset: 0; stroke-linejoin: miter; stroke-miterlimit: 4; fill: rgb(255,214,29); fill-rule: nonzero; opacity: 1;" vector-effect="non-scaling-stroke"  transform=" translate(-137.31, -62.78)" d="M 183 -0.79 C 183 -0.79 178.34 4.47 181 10.120000000000001 C 183.45 15.330000000000002 191.84 12.620000000000001 194.62 16.37 C 197.4 20.12 196.18 23.6 200.22 24.810000000000002 C 206.97 26.810000000000002 213.68 21.310000000000002 213.68 21.310000000000002 z M 60.93 126.34 C 60.93 126.34 64.26 105.87 75.24 106.22 C 86.21999999999998 106.57 84.24 120.22 88.16 121.43 C 92.08 122.64000000000001 93.03999999999999 118.33000000000001 97.56 120.68 C 100.17 122.03 100.99000000000001 126.34 100.99000000000001 126.34 z" stroke-linecap="round" />
</g>
		<g transform="matrix(1 0 0 1 -43.34 60.62)"  >
<path style="stroke: none; stroke-width: 1; stroke-dasharray: none; stroke-linecap: butt; stroke-dashoffset: 0; stroke-linejoin: miter; stroke-miterlimit: 4; fill: rgb(255,193,0); fill-rule: nonzero; opacity: 1;" vector-effect="non-scaling-stroke"  transform=" translate(-71.55, -123.4)" d="M 65.82 126.34 C 65.82 126.34 66.82 120.45 71.27999999999999 120.45 C 74.69999999999999 120.45 77.27999999999999 126.34 77.27999999999999 126.34 z" stroke-linecap="round" />
</g>
		<g transform="matrix(0 1 -1 0 -106.36 28.4)"  >
<rect style="stroke: none; stroke-width: 1; stroke-dasharray: none; stroke-linecap: butt; stroke-dashoffset: 0; stroke-linejoin: miter; stroke-miterlimit: 4; fill: rgb(255,214,29); fill-rule: nonzero; opacity: 1;" vector-effect="non-scaling-stroke"  x="-16.26" y="-9.025" rx="1.86" ry="1.86" width="32.52" height="18.05" />
</g>
		<g transform="matrix(0 -1 1 0 -104.22 38.28)"  >
<rect style="stroke: none; stroke-width: 1; stroke-dasharray: none; stroke-linecap: butt; stroke-dashoffset: 0; stroke-linejoin: miter; stroke-miterlimit: 4; fill: rgb(255,193,0); fill-rule: nonzero; opacity: 1;" vector-effect="non-scaling-stroke"  x="-2.94" y="-2.94" rx="1.4" ry="1.4" width="5.88" height="5.88" />
</g>
		<g transform="matrix(0 -1 1 0 -104.21 29.9)"  >
<rect style="stroke: none; stroke-width: 1; stroke-dasharray: none; stroke-linecap: butt; stroke-dashoffset: 0; stroke-linejoin: miter; stroke-miterlimit: 4; fill: rgb(255,193,0); fill-rule: nonzero; opacity: 1;" vector-effect="non-scaling-stroke"  x="-2.94" y="-2.94" rx="1.4" ry="1.4" width="5.88" height="5.88" />
</g>
		<g transform="matrix(1 0 0 1 -39.67 15.5)"  >
<path style="stroke: none; stroke-width: 1; stroke-dasharray: none; stroke-linecap: butt; stroke-dashoffset: 0; stroke-linejoin: miter; stroke-miterlimit: 4; fill: rgb(70,32,174); fill-rule: nonzero; opacity: 1;" vector-effect="non-scaling-stroke"  transform=" translate(-75.22, -78.28)" d="M 59.72 102 L 77.27 102 L 77.27 47.78 L 85 47.78 C 86.45 47.78 87.42 49.11 87.3 51.65 C 87.17999999999999 54.19 90.94 105.65 90.7 107.21000000000001 C 90.46000000000001 108.77000000000001 88.76 108.78 87.31 108.78 L 59.72 108.78 z" stroke-linecap="round" />
</g>
		<g transform="matrix(1 0 0 1 -46.41 -0.65)"  >
<path style="stroke: none; stroke-width: 1; stroke-dasharray: none; stroke-linecap: butt; stroke-dashoffset: 0; stroke-linejoin: miter; stroke-miterlimit: 4; fill: rgb(111,56,212); fill-rule: nonzero; opacity: 1;" vector-effect="non-scaling-stroke"  transform=" translate(-68.48, -62.13)" d="M 77.27 47.78 L 62 47.78 C 60.91 47.78 59.7 48.39 59.7 49.47 L 59.7 73.73 C 59.666829864416734 74.49677432835058 59.968983923168516 75.24002668528409 60.52775843494406 75.76615801252292 C 61.0865329467196 76.29228933976175 61.84660703793178 76.54921056733039 62.61 76.47 L 77.27 76.47 L 77.27 65.94 L 70.61999999999999 65.94 C 69.77 65.94 69.27999999999999 65.5 69.27999999999999 64.73 L 69.27999999999999 58.4 C 69.27999999999999 57.92 69.27999999999999 57.4 70.04999999999998 57.4 L 77.26999999999998 57.4 z" stroke-linecap="round" />
</g>
		<g transform="matrix(1 0 0 1 20.16 8.76)"  >
<path style="stroke: none; stroke-width: 1; stroke-dasharray: none; stroke-linecap: butt; stroke-dashoffset: 0; stroke-linejoin: miter; stroke-miterlimit: 4; fill: rgb(70,32,174); fill-rule: nonzero; opacity: 1;" vector-effect="non-scaling-stroke"  transform=" translate(-135.05, -71.54)" d="M 123.19 40.8 L 143.4 40.8 C 145.66 40.8 146.91 42.25 146.91 45.239999999999995 L 146.91 102.28999999999999 L 128.38 102.28999999999999 C 125.69999999999999 102.28999999999999 123.19 100.28999999999999 123.19 95.91 z" stroke-linecap="round" />
</g>
		<g transform="matrix(1 0 0 1 -3.15 -18)"  >
<path style="stroke: none; stroke-width: 1; stroke-dasharray: none; stroke-linecap: butt; stroke-dashoffset: 0; stroke-linejoin: miter; stroke-miterlimit: 4; fill: rgb(111,56,212); fill-rule: nonzero; opacity: 1;" vector-effect="non-scaling-stroke"  transform=" translate(-111.74, -44.78)" d="M 88.15 65.9 L 113 65.9 C 113.57056535695189 65.93522525435519 114.12893334904861 65.72461560175402 114.53410659733588 65.32135354803415 C 114.93927984562315 64.91809149431428 115.15252716715634 64.36072552816115 115.12 63.790000000000006 L 115.12 13.1 L 132.73000000000002 13.1 C 134.19210118339433 13.148844869641618 135.34713071810856 14.3571834598042 135.33 15.82 C 135.33 17.21 133.33 71.82 133.25 73.07 C 133.25 74.69 132.32 76.46 129.42 76.46 L 88.84 76.46 z" stroke-linecap="round" />
</g>
		<g transform="matrix(1 0 0 1 -7.62 -30.65)"  >
<path style="stroke: none; stroke-width: 1; stroke-dasharray: none; stroke-linecap: butt; stroke-dashoffset: 0; stroke-linejoin: miter; stroke-miterlimit: 4; fill: rgb(70,32,174); fill-rule: nonzero; opacity: 1;" vector-effect="non-scaling-stroke"  transform=" translate(-107.26, -32.13)" d="M 115.1 13.1 L 101.91999999999999 13.1 C 100.46999999999998 13.1 99.41999999999999 14.01 99.41999999999999 16.509999999999998 C 99.41999999999999 19.009999999999998 100.66999999999999 47.01 100.66999999999999 48.51 C 100.66999999999999 50.01 101.07 51.17 102.66999999999999 51.17 L 115.1 51.17 L 115.1 41.85 L 109 41.85 L 109 26.85 L 115.11 26.85 z" stroke-linecap="round" />
</g>
		<g transform="matrix(1 0 0 1 51.12 4.81)"  >
<path style="stroke: none; stroke-width: 1; stroke-dasharray: none; stroke-linecap: butt; stroke-dashoffset: 0; stroke-linejoin: miter; stroke-miterlimit: 4; fill: rgb(111,56,212); fill-rule: nonzero; opacity: 1;" vector-effect="non-scaling-stroke"  transform=" translate(-166.01, -67.59)" d="M 146.91 83.49 L 160.18 83.49 C 162 83.49 162.96 81.92 163.09 79.97999999999999 C 163.22 78.03999999999998 163.09 39.54999999999999 163.09 37.24999999999999 C 163.09 34.949999999999996 164.54 32.88999999999999 167.93 32.88999999999999 L 185.12 32.88999999999999 C 185.12 32.88999999999999 180.26 91.88999999999999 180.12 94.04999999999998 C 179.79 98.61999999999998 177.5 102.28999999999998 170.63 102.28999999999998 L 146.93 102.28999999999998 z" stroke-linecap="round" />
</g>
		<g transform="matrix(1 0 0 1 76.43 -13.3)"  >
<path style="stroke: none; stroke-width: 1; stroke-dasharray: none; stroke-linecap: butt; stroke-dashoffset: 0; stroke-linejoin: miter; stroke-miterlimit: 4; fill: rgb(70,32,174); fill-rule: nonzero; opacity: 1;" vector-effect="non-scaling-stroke"  transform=" translate(-191.32, -49.48)" d="M 182.39 66.06 L 200.25 66.06 L 200.25 32.9 L 185.12 32.9 L 182.39000000000001 66.06 z" stroke-linecap="round" />
</g>
		<g transform="matrix(1 0 0 1 88.75 -12.63)"  >
<path style="stroke: none; stroke-width: 1; stroke-dasharray: none; stroke-linecap: butt; stroke-dashoffset: 0; stroke-linejoin: miter; stroke-miterlimit: 4; fill: rgb(111,56,212); fill-rule: nonzero; opacity: 1;" vector-effect="non-scaling-stroke"  transform=" translate(-203.64, -50.16)" d="M 193.6 50.16 C 194.14 37.73 200.98 29.159999999999997 208.82 28.939999999999998 L 212.47 28.849999999999998 C 211.92 37.53 217.26 62.06999999999999 209.24 71.46 C 209.24 71.46 208.42000000000002 71.46 205.86 71.36999999999999 C 198.34 71.13 193.09 61.91999999999999 193.60000000000002 50.15999999999999 z" stroke-linecap="round" />
</g>
		<g transform="matrix(1 0 0 1 60.41 14.82)"  >
<path style="stroke: none; stroke-width: 1; stroke-dasharray: none; stroke-linecap: butt; stroke-dashoffset: 0; stroke-linejoin: miter; stroke-miterlimit: 4; fill: rgb(70,32,174); fill-rule: nonzero; opacity: 1;" vector-effect="non-scaling-stroke"  transform=" translate(-175.3, -77.6)" d="M 125.82 126.34 L 124.69999999999999 126.34 L 135.81 106.72 L 136.65 107.2 L 125.82000000000001 126.34 z M 136.75 107.44 L 137.72 107.44 L 137.72 126.35 L 136.75 126.35 z M 149.68 126.34 L 138.28 107.69 L 139.11 107.17999999999999 L 150.82000000000002 126.33999999999999 L 149.68000000000004 126.33999999999999 z M 197 50.16 C 197.54 37.73 204.51 28.859999999999996 212.47 28.859999999999996 C 220.43 28.859999999999996 226.59 38.379999999999995 225.84 50.16 C 225.09 61.94 218.76 71.46 209.24 71.46 C 202 71.47 196.49 61.919999999999995 197 50.16 z" stroke-linecap="round" />
</g>
		<g transform="matrix(1 0 0 1 96.54 -12.64)"  >
<path style="stroke: none; stroke-width: 1; stroke-dasharray: none; stroke-linecap: butt; stroke-dashoffset: 0; stroke-linejoin: miter; stroke-miterlimit: 4; fill: rgb(40,40,40); fill-rule: nonzero; opacity: 1;" vector-effect="non-scaling-stroke"  transform=" translate(-211.43, -50.14)" d="M 210.63 66.68 C 208.48162669116334 66.61084717944415 206.46238611307595 65.63754416698477 205.07 64 C 202.16 60.91 200.63 55.730000000000004 200.97 50.16 C 201.57 40.41 206.57 33.599999999999994 213.14 33.599999999999994 C 214.89785974527473 33.66028494554888 216.55226575215121 34.44585628798258 217.70999999999998 35.769999999999996 C 220.54999999999998 38.769999999999996 222.15999999999997 44.22 221.92 50.08 C 221.54 59.41 216.57999999999998 66.68 210.63 66.68 z" stroke-linecap="round" />
</g>
		<g transform="matrix(1 0 0 1 96.52 -12.63)"  >
<path style="stroke: none; stroke-width: 1; stroke-dasharray: none; stroke-linecap: butt; stroke-dashoffset: 0; stroke-linejoin: miter; stroke-miterlimit: 4; fill: rgb(111,56,212); fill-rule: nonzero; opacity: 1;" vector-effect="non-scaling-stroke"  transform=" translate(-211.41, -50.15)" d="M 213.15 34.39 C 214.69509717993768 34.452288355459345 216.14445736559543 35.15522804550334 217.15 36.33 C 219.85 39.15 221.39000000000001 44.42 221.15 50.089999999999996 C 220.78 58.97 216.15 65.92 210.61 65.92 C 208.68072078091362 65.85573899922235 206.86687893998328 64.9850949155758 205.61 63.52 C 202.84 60.57 201.38000000000002 55.61 201.71 50.24 C 202.28 40.900000000000006 206.98000000000002 34.38 213.14000000000001 34.38 M 213.14000000000001 32.88 C 205.73000000000002 32.88 200.8 40.63 200.22000000000003 50.150000000000006 C 199.64000000000004 59.67000000000001 204.43000000000004 67.42 210.63000000000002 67.42 C 216.83 67.42 222.25000000000003 60.22 222.63000000000002 50.150000000000006 C 223.03000000000003 40.620000000000005 218.75000000000003 32.88000000000001 213.10000000000002 32.88000000000001 z" stroke-linecap="round" />
</g>
		<g transform="matrix(1 0 0 1 97.47 -12.62)"  >
<path style="stroke: none; stroke-width: 1; stroke-dasharray: none; stroke-linecap: butt; stroke-dashoffset: 0; stroke-linejoin: miter; stroke-miterlimit: 4; fill: rgb(248,101,0); fill-rule: nonzero; opacity: 1;" vector-effect="non-scaling-stroke"  transform=" translate(-212.36, -50.16)" d="M 209 50.16 C 209.13 47.269999999999996 210.75 45.16 212.6 45.16 C 214.45 45.16 215.89 47.379999999999995 215.71 50.16 C 215.53000000000003 52.94 214.06 55.16 211.84 55.16 C 210.17000000000002 55.129999999999995 208.89000000000001 52.9 209 50.16 z" stroke-linecap="round" />
</g>
		<g transform="matrix(1 0 0 1 22.44 42.36)"  >
<path style="stroke: none; stroke-width: 1; stroke-dasharray: none; stroke-linecap: butt; stroke-dashoffset: 0; stroke-linejoin: miter; stroke-miterlimit: 4; fill: rgb(111,56,212); fill-rule: nonzero; opacity: 1;" vector-effect="non-scaling-stroke"  transform=" translate(-137.33, -105.14)" d="M 133.23 107.65 C 131.98487783649853 105.4040199130087 132.71931200847862 102.57622846041463 134.89999999999998 101.22 C 136.30919367061358 100.3100663907458 138.10088199217998 100.23544499486087 139.58085908752298 101.0250485484293 C 141.06083618286598 101.81465210199772 141.99655014818396 103.34440854322297 142.02545012780595 105.0215998756969 C 142.05435010742792 106.69879120817082 141.17189498696635 108.25987684154664 139.71999999999997 109.1 C 137.51984591845894 110.44727500061421 134.64755173117172 109.80554517448687 133.22999999999996 107.64999999999999 z" stroke-linecap="round" />
</g>
		<g transform="matrix(1 0 0 1 -23.72 4.14)"  >
<path style="stroke: none; stroke-width: 1; stroke-dasharray: none; stroke-linecap: butt; stroke-dashoffset: 0; stroke-linejoin: miter; stroke-miterlimit: 4; fill: rgb(70,32,174); fill-rule: nonzero; opacity: 1;" vector-effect="non-scaling-stroke"  transform=" translate(-91.17, -66.92)" d="M 139.71 109.1 C 138.3008063293864 110.00993360925419 136.50911800782 110.08455500513912 135.029140912477 109.2949514515707 C 133.549163817134 108.50534789800227 132.61344985181603 106.97559145677702 132.58454987219403 105.2984001243031 C 132.55564989257206 103.62120879182919 133.4381050130336 102.06012315845337 134.89000000000001 101.22 M 42.63000000000001 93.36 L 57.63000000000001 93.36 C 59.42000000000001 93.36 60.20000000000001 94.36 60.71000000000001 95.84 C 61.02000000000001 96.74000000000001 61.940000000000005 99.60000000000001 61.940000000000005 99.60000000000001 L 56.43000000000001 100.39000000000001 L 55.14000000000001 96.39000000000001 C 55.045029449117116 96.09402014087107 54.770833870318945 95.89240574469595 54.46000000000001 95.89000000000001 L 42.63 95.89000000000001 z M 124.41000000000001 60.45 C 123.16456918839212 60.3967641910438 122.179517167682 59.3765317410226 122.17000000000002 58.13 C 122.17000000000002 56.892882160379024 123.17288216037903 55.89 124.41000000000003 55.89 C 125.64711783962099 55.89 126.65000000000002 56.892882160379024 126.65000000000002 58.13 C 126.65074379150137 59.380697909203505 125.65995433886899 60.40687269942991 124.41000000000003 60.45 z M 126.69 42 C 126.6367641910438 43.245430811607896 125.61653174102261 44.23048283231802 124.37 44.24 C 123.56972505758593 44.24000003152969 122.83024050228775 43.81305845036416 122.43010302197888 43.120000025476386 C 122.02996554167 42.42694160058862 122.02996554167 41.57305839941139 122.43010302197887 40.87999997452362 C 122.83024050228775 40.18694154963585 123.56972505758593 39.75999996847032 124.37 39.760000000000005 C 125.6206979092035 39.759256208498655 126.6468726994299 40.75004566113105 126.69 42.00000000000001 z M 122.13 26.259999999999998 C 122.17283256849979 25.006715992153083 123.19602404101909 24.009986368061 124.44999999999999 24 C 125.68711783962097 24 126.68999999999998 25.002882160379023 126.68999999999998 26.24 C 126.68999999999998 27.477117839620977 125.68711783962097 28.48 124.44999999999999 28.48 C 123.20675718968917 28.48115542918248 122.18358753840228 27.502087918037248 122.13 26.26 z" stroke-linecap="round" />
</g>
		<g transform="matrix(1 0 0 1 -55.16 41.85)"  >
<path style="stroke: none; stroke-width: 1; stroke-dasharray: none; stroke-linecap: butt; stroke-dashoffset: 0; stroke-linejoin: miter; stroke-miterlimit: 4; fill: rgb(111,56,212); fill-rule: nonzero; opacity: 1;" vector-effect="non-scaling-stroke"  transform=" translate(-59.73, -104.63)" d="M 53 104.59 C 53.1743734632889 100.93218401836512 56.16828810875424 98.04347281578582 59.83 98 C 63.49164789137816 98 66.46 100.96835210862184 66.46000000000001 104.63 C 66.46000000000001 108.29164789137816 63.491647891378165 111.26 59.83 111.26 C 56.12595668899994 111.24522160675006 53.10256145609426 108.2926526164893 53 104.59 z" stroke-linecap="round" />
</g>
		<g transform="matrix(1 0 0 1 -55.17 41.87)"  >
<path style="stroke: none; stroke-width: 1; stroke-dasharray: none; stroke-linecap: butt; stroke-dashoffset: 0; stroke-linejoin: miter; stroke-miterlimit: 4; fill: rgb(70,32,174); fill-rule: nonzero; opacity: 1;" vector-effect="non-scaling-stroke"  transform=" translate(-59.72, -104.65)" d="M 59.72 106.22 C 58.82729703676618 106.18282624722379 58.11986297078196 105.45342217919037 58.11 104.56 C 58.17615053736044 103.72260006588928 58.87499134335311 103.07678722333105 59.715 103.07678722333105 C 60.55500865664689 103.07678722333105 61.25384946263956 103.72260006588928 61.32 104.56 C 61.32058406923892 105.45386334953038 60.61327947111304 106.18769187008597 59.72 106.22 z" stroke-linecap="round" />
</g>
		<g transform="matrix(1 0 0 1 -85.95 28.82)"  >
<path style="stroke: none; stroke-width: 1; stroke-dasharray: none; stroke-linecap: butt; stroke-dashoffset: 0; stroke-linejoin: miter; stroke-miterlimit: 4; fill: rgb(40,40,40); fill-rule: nonzero; opacity: 1;" vector-effect="non-scaling-stroke"  transform=" translate(-28.94, -91.6)" d="M 28.94 94.5 C 27.36113820331984 94.4211465143128 26.11437928794983 93.13064167208769 26.09 91.55 C 26.08999998505636 90.53179305879931 26.633206913026505 89.59093103927204 27.514999987925346 89.08182756435784 C 28.396793062824187 88.57272408944362 29.483206937175808 88.57272408944362 30.365000012074653 89.08182756435782 C 31.246793086973494 89.59093103927204 31.79000001494364 90.53179305879931 31.79 91.55 C 31.76562071205017 93.13064167208769 30.51886179668016 94.4211465143128 28.939999999999998 94.5 z" stroke-linecap="round" />
</g>
		<g transform="matrix(1 0 0 1 -80.27 34.67)"  >
<path style="stroke: none; stroke-width: 1; stroke-dasharray: none; stroke-linecap: butt; stroke-dashoffset: 0; stroke-linejoin: miter; stroke-miterlimit: 4; fill: rgb(248,101,0); fill-rule: nonzero; opacity: 1;" vector-effect="non-scaling-stroke"  transform=" translate(-34.62, -97.45)" d="M 29.69 102.24 C 29.69 102.24 30.450000000000003 101.99 30.86 99.97 C 31.18 98.35 28.86 92.55 33.92 92.22 C 38.6 91.92 36.230000000000004 95.6 39.54 96.49 C 38.11 96.86999999999999 39.35 97.96 39.21 99.22999999999999 C 38.99 101.22999999999999 36.06 100.57999999999998 37.7 101.91999999999999 C 39.56 103.44999999999999 29.690000000000005 102.23999999999998 29.690000000000005 102.23999999999998 z" stroke-linecap="round" />
</g>
		<g transform="matrix(1 0 0 1 -81.36 46.41)"  >
<path style="stroke: none; stroke-width: 1; stroke-dasharray: none; stroke-linecap: butt; stroke-dashoffset: 0; stroke-linejoin: miter; stroke-miterlimit: 4; fill: rgb(255,255,255); fill-rule: nonzero; opacity: 1;" vector-effect="non-scaling-stroke"  transform=" translate(-33.53, -109.19)" d="M 34.58 100.38 C 30.08 98.99 26.79 101.17 25.06 106.22 C 23.43 110.96 18.439999999999998 113 17.56 118.41 L 37.489999999999995 118.41 C 37.15992520140875 115.66581480011487 37.639614746862634 112.88500584096192 38.87 110.41 C 44.44 113.72 48.489999999999995 109.86999999999999 49.209999999999994 106.28 C 49.66760442777722 104.3784384829504 49.58447574631119 102.38681382282677 48.96999999999999 100.53 L 43 100.53 C 43 101.68 44.27 104.71000000000001 42.27 105.15 C 40.85 105.51 39.080000000000005 101.77000000000001 34.580000000000005 100.38000000000001 z" stroke-linecap="round" />
</g>
		<g transform="matrix(1 0 0 1 -74.6 31.88)"  >
<path style="stroke: none; stroke-width: 1; stroke-dasharray: none; stroke-linecap: butt; stroke-dashoffset: 0; stroke-linejoin: miter; stroke-miterlimit: 4; fill: rgb(111,56,212); fill-rule: nonzero; opacity: 1;" vector-effect="non-scaling-stroke"  transform=" translate(-40.29, -94.66)" d="M 37.94 93.89 L 42.64 93.89 L 42.64 95.42 L 37.94 95.42 z" stroke-linecap="round" />
</g>
		<g transform="matrix(1 0 0 1 -86.76 59.59)"  >
<path style="stroke: none; stroke-width: 1; stroke-dasharray: none; stroke-linecap: butt; stroke-dashoffset: 0; stroke-linejoin: miter; stroke-miterlimit: 4; fill: rgb(40,40,40); fill-rule: nonzero; opacity: 1;" vector-effect="non-scaling-stroke"  transform=" translate(-28.13, -122.38)" d="M 24.21 118.41 C 24.21 118.41 23.98 119.41 25.04 121.41 C 26.04 123.27 26.52 123.96 26.11 124.69 C 25.870159382675393 125.20490706346924 25.800123513453915 125.78270298454645 25.91 126.34 L 26.91 126.34 C 26.91 126.34 26.91 125.09 27.6 125.25 C 28.886115925703788 125.96061009167596 30.330632586534424 126.33549655841534 31.799999999999997 126.34 C 33.02 126.34 29.69 125.42 29.22 122.87 C 28.993756689708718 121.2818165739079 29.427366233331746 119.67023443677564 30.419999999999998 118.41000000000001 z" stroke-linecap="round" />
</g>
		<g transform="matrix(1 0 0 1 -77.88 47.01)"  >
<path style="stroke: none; stroke-width: 1; stroke-dasharray: none; stroke-linecap: butt; stroke-dashoffset: 0; stroke-linejoin: miter; stroke-miterlimit: 4; fill: rgb(70,32,174); fill-rule: nonzero; opacity: 1;" vector-effect="non-scaling-stroke"  transform=" translate(-37.01, -109.79)" d="M 37.77 96.07 C 37.24 96.07 37.18 95.39999999999999 37.17 94.63 C 37.160000000000004 93.86 37.29 93.24 37.77 93.24 C 38.25000000000001 93.24 38.370000000000005 93.86 38.370000000000005 94.63 C 38.370000000000005 95.39999999999999 38.38 96.07 37.77 96.07 z M 32 118.41 C 32.283947785194435 119.38101360766757 32.6905606206716 120.31185456161116 33.21 121.17999999999999 C 34.27 122.77 35.85 123.96 35.63 124.69 C 35.52800322785359 125.24849126480326 35.601359574558806 125.82486256034426 35.84 126.34 L 36.84 126.34 C 36.84 126.34 36.57 125.09 37.260000000000005 125.25 C 38.651662402313704 125.937768513351 40.177953977542586 126.30995147017416 41.730000000000004 126.34 C 42.95 126.34 39.970000000000006 125.34 38.730000000000004 122.86 C 38.093672024606455 121.45071605294834 37.688483234381444 119.94814095586392 37.53 118.41 z" stroke-linecap="round" />
</g>
		<g transform="matrix(1 0 0 1 -81.79 33.2)"  >
<path style="stroke: none; stroke-width: 1; stroke-dasharray: none; stroke-linecap: butt; stroke-dashoffset: 0; stroke-linejoin: miter; stroke-miterlimit: 4; fill: rgb(40,40,40); fill-rule: nonzero; opacity: 1;" vector-effect="non-scaling-stroke"  transform=" translate(-33.1, -95.98)" d="M 36.31 92.65 C 36.31 92.65 36.46 95 35 95.58 C 33.54 96.16 32.68 95.97 32.9 97.27 C 33.03352736644286 97.9276095436362 32.880800544508816 98.61096793178885 32.480017661797504 99.14916208857261 C 32.07923477908619 99.68735624535637 31.46829537773525 100.0294924999007 30.799999999999997 100.08999999999999 C 30.97 98.6 28.65 95.93999999999998 30.799999999999997 93.36999999999999 C 32.143005997700506 91.6852031360431 34.57916999469018 91.36686591683574 36.309999999999995 92.64999999999999 z" stroke-linecap="round" />
</g>
		<g transform="matrix(1 0 0 1 -68.24 35.14)"  >
<path style="stroke: none; stroke-width: 1; stroke-dasharray: none; stroke-linecap: butt; stroke-dashoffset: 0; stroke-linejoin: miter; stroke-miterlimit: 4; fill: rgb(248,101,0); fill-rule: nonzero; opacity: 1;" vector-effect="non-scaling-stroke"  transform=" translate(-46.65, -97.92)" d="M 43 100.58 C 42.21 94.95 49 94.84 49.63 95.58 C 50.260000000000005 96.32 48.75 96.58 48.75 96.58 C 48.75 96.58 49.89 96.36 50.15 97.14 C 50.41 97.92 49.08 97.82000000000001 49.08 97.82000000000001 C 49.08 97.82000000000001 50.15 97.74000000000001 50.339999999999996 98.46000000000001 C 50.61 99.46000000000001 48.61 98.53 48.98 100.58000000000001 z" stroke-linecap="round" />
</g>
		<g transform="matrix(1 0 0 1 -89.76 47.38)"  >
<path style="stroke: none; stroke-width: 1; stroke-dasharray: none; stroke-linecap: butt; stroke-dashoffset: 0; stroke-linejoin: miter; stroke-miterlimit: 4; fill: rgb(238,238,238); fill-rule: nonzero; opacity: 1;" vector-effect="non-scaling-stroke"  transform=" translate(-25.13, -110.16)" d="M 32 111.93 C 29.91 107.7 34.6 105.76 31.79 102.93 C 30.61 101.76 28.79 101.84 27.259999999999998 102.17 C 26.27077812544929 103.34731183470163 25.52015585072886 104.7059041871368 25.049999999999997 106.17 C 23.419999999999998 110.91 18.429999999999996 112.95 17.549999999999997 118.36 L 30.379999999999995 118.36 C 30.379999999999995 118.36 33.94 115.85 31.999999999999996 111.93 z" stroke-linecap="round" />
</g>
		<g transform="matrix(1 0 0 1 2.31 -4.6)"  >
<path style="stroke: none; stroke-width: 1; stroke-dasharray: none; stroke-linecap: butt; stroke-dashoffset: 0; stroke-linejoin: miter; stroke-miterlimit: 4; fill: rgb(70,32,174); fill-rule: nonzero; opacity: 1;" vector-effect="non-scaling-stroke"  transform=" translate(-117.2, -58.18)" d="M 168.57 77.83 C 167.93 74.61 166.12 71.38 169.91 66.95 C 173.7 62.52000000000001 174.35 58.64 171.56 55.13 C 168.77 51.620000000000005 168.86 48.07 173.06 43.230000000000004 C 176.71 39.02 173.46 34.31 170 32.900000000000006 L 167.94 32.900000000000006 C 164.55 32.900000000000006 163.1 34.96000000000001 163.1 37.260000000000005 C 163.1 39.56 163.22 78.05000000000001 163.1 79.99000000000001 C 162.98 81.93 162.1 83.26 160.56 83.46000000000001 L 160.62 83.46000000000001 C 167.34 83.46000000000001 169.26 81.34 168.57 77.83000000000001 z M 63.72 70.34 C 62.22 68.56 63.48 67.27000000000001 62.43 63.34 C 61.8 60.970000000000006 60.589999999999996 60.17 59.73 59.910000000000004 L 59.73 73.73 C 59.69682986441672 74.49677432835058 59.99898392316851 75.24002668528409 60.557758434944056 75.76615801252292 C 61.1165329467196 76.29228933976175 61.876607037931784 76.54921056733039 62.64 76.47 L 68.25 76.47 C 67.63 72.92 65.65 72.63 63.72 70.34 z" stroke-linecap="round" />
</g>
		<g transform="matrix(1 0 0 1 -71.15 40.37)"  >
<path style="stroke: none; stroke-width: 1; stroke-dasharray: none; stroke-linecap: butt; stroke-dashoffset: 0; stroke-linejoin: miter; stroke-miterlimit: 4; fill: rgb(238,238,238); fill-rule: nonzero; opacity: 1;" vector-effect="non-scaling-stroke"  transform=" translate(-43.74, -103.15)" d="M 45.29 100.58 L 43 100.58 C 43 101.73 44.27 104.75999999999999 42.27 105.2 C 42.05471428172281 105.23633450065188 41.83345268449081 105.20121361220237 41.64 105.10000000000001 C 46 107.39000000000001 46.46 102.87 45.29 100.58000000000001 z" stroke-linecap="round" />
</g>
		<g transform="matrix(1 0 0 1 -66.68 28.99)"  >
<path style="stroke: none; stroke-width: 1; stroke-dasharray: none; stroke-linecap: butt; stroke-dashoffset: 0; stroke-linejoin: miter; stroke-miterlimit: 4; fill: rgb(111,56,212); fill-rule: nonzero; opacity: 1;" vector-effect="non-scaling-stroke"  transform=" translate(-48.21, -91.78)" d="M 47.35 90.19 L 49.07 90.19 L 49.07 93.36 L 47.35 93.36 z" stroke-linecap="round" />
</g>
		<g transform="matrix(1 0 0 1 -66.69 26.67)"  >
<path style="stroke: none; stroke-width: 1; stroke-dasharray: none; stroke-linecap: butt; stroke-dashoffset: 0; stroke-linejoin: miter; stroke-miterlimit: 4; fill: rgb(70,32,174); fill-rule: nonzero; opacity: 1;" vector-effect="non-scaling-stroke"  transform=" translate(-48.2, -89.45)" d="M 45.63 90.19 L 50.800000000000004 90.19 C 50.800000000000004 90.19 51.00000000000001 88.72 50.230000000000004 88.71 C 49.46 88.69999999999999 49.53 89.25 49.160000000000004 89.3 C 48.790000000000006 89.35 48.84 88.72 48.160000000000004 88.71 C 47.480000000000004 88.69999999999999 47.67 89.3 47.300000000000004 89.3 C 46.93000000000001 89.3 46.75000000000001 88.72 46.300000000000004 88.71 C 45.690000000000005 88.69999999999999 45.480000000000004 89.71 45.63 90.19 z" stroke-linecap="round" />
</g>
</g>
</g>
</svg>