<?xml version="1.0" encoding="UTF-8" standalone="no" ?>
<!DOCTYPE svg PUBLIC "-//W3C//DTD SVG 1.1//EN" "http://www.w3.org/Graphics/SVG/1.1/DTD/svg11.dtd">
<svg xmlns="http://www.w3.org/2000/svg" xmlns:xlink="http://www.w3.org/1999/xlink" version="1.1" width="1080" height="1080" viewBox="0 0 1080 1080" xml:space="preserve">
<desc>Created with Fabric.js 4.2.0</desc>
<defs>
</defs>
<rect x="0" y="0" width="100%" height="100%" fill="transparent"></rect>
<g transform="matrix(1 0 0 1 540 540)" id="10fb2f87-dbbb-478e-abb4-3b1c3c084204"  >
<rect style="stroke: none; stroke-width: 1; stroke-dasharray: none; stroke-linecap: butt; stroke-dashoffset: 0; stroke-linejoin: miter; stroke-miterlimit: 4; fill: rgb(255,255,255); fill-rule: nonzero; opacity: 1;" vector-effect="non-scaling-stroke"  x="-540" y="-540" rx="0" ry="0" width="1080" height="1080" />
</g>
<g transform="matrix(Infinity NaN NaN Infinity 0 0)" id="3fb8d1bc-5b1f-448e-b56d-86cb597e6f16"  >
</g>
<g transform="matrix(58.28 0 0 58.28 537.36 541.76)" id="bfa2e55e-6a73-4c5c-ace7-b9a4cb1bf57c"  >
<path style="stroke: rgb(0,0,0); stroke-width: 0; stroke-dasharray: none; stroke-linecap: butt; stroke-dashoffset: 0; stroke-linejoin: miter; stroke-miterlimit: 4; fill: rgb(0,0,0); fill-rule: nonzero; opacity: 1;" vector-effect="non-scaling-stroke"  transform=" translate(-12, -12)" d="M 17 10.5 L 17 7 C 17 6.45 16.55 6 16 6 L 4 6 C 3.45 6 3 6.45 3 7 L 3 17 C 3 17.55 3.45 18 4 18 L 16 18 C 16.55 18 17 17.55 17 17 L 17 13.5 L 21 17.5 L 21 6.5 L 17 10.5 z M 14 13 L 11 13 L 11 16 L 9 16 L 9 13 L 6 13 L 6 11 L 9 11 L 9 8 L 11 8 L 11 11 L 14 11 L 14 13 z" stroke-linecap="round" />
</g>
</svg>